<?xml version="1.0" encoding="utf-8"?>
<!-- Generator: Adobe Illustrator 16.0.0, SVG Export Plug-In . SVG Version: 6.00 Build 0)  -->
<!DOCTYPE svg PUBLIC "-//W3C//DTD SVG 1.1//EN" "http://www.w3.org/Graphics/SVG/1.1/DTD/svg11.dtd">
<svg version="1.1" id="Layer_1" xmlns="http://www.w3.org/2000/svg" xmlns:xlink="http://www.w3.org/1999/xlink" x="0px" y="0px"
	 width="283.465px" height="79.37px" viewBox="0 0 283.465 79.37" enable-background="new 0 0 283.465 79.37" xml:space="preserve">
<g id="svgGroup">
	<path id="_x30__2_" vector-effect="non-scaling-stroke" fill="#FFFFFF" d="M43.029,46.476c0.7,0.395,0.575,0.645,1.1,1.4
		c-0.15,0.149-0.4,0.5-0.4,0.5l0.8,1.398c0,0-0.688,0.643-1.1,0.8c-5.138,1.982-4.606,1.42-5.4,1.8h-3.1
		c-1.419,0.151-2.106,1.059-3.536,0.98c-0.585,0.02-1.476,0.168-2.014-0.133c-0.697-0.313-1.585-0.061-2.1,0.051
		c-1.706,0.503-3.926,0.189-5.35,0.199c-2.138,0.115-2.284-1.315-5.4-2.301l-0.2-0.801c0,0-1.881-2.507-2-2.697
		c-0.365-0.371-0.272-0.262-0.3-0.803c0-1.268,0.257-2.771,0.6-3.751c0.684-1.675,0.325-3.205,0.9-3.648
		c-0.006-0.401-0.019-1.357-0.043-1.438c-0.001-0.005-0.004-0.01-0.007-0.014c-0.009-0.01-0.141-0.233-0.25-0.45
		c-0.047-0.409,0.294-0.692,0.3-0.701c-0.341-0.298,0.45-0.965,0.5-1.298l-0.3-0.2c0.531-1.1,1.234-3.646,1.4-4.6
		c0-0.7,0.055-1.173,0.164-1.416c0.264-0.49,0.827-0.365,1.186-0.634c0.516-0.778-0.203-0.325,0.885-3.04
		c0.49-1.365,2.657-6.49,8.465-6.314c1.025,0.12,2.9,0.104,2.9,0.104l-0.5,0.6l-1.9,0.3c2.65-0.096,4.15,0.737,7.3,0.802
		c0.059-0.939-2.066-0.898-3.4-1.05c-0.361-0.023-0.761-0.111-0.9-0.35c1.275-0.373,2.2-0.098,2.2-0.098l0.2-0.2
		c2.5,0.05,2.444,0.926,4.229,0.997c1.177,0.003,4.104-0.197,5.271,0.399c-0.583,0.695,0.292,0.729,0,1.4
		c-0.267,0.43-0.8,0.801-0.8,0.801l0.7,0.9c-1.744,1.146-3.681,2.428-5.6,2.048c-3.987-0.37-5.394-0.089-7.7,2.503
		c-0.6,0.7-2.069,2.971-2.9,3.653c0.487,1.693-1.87,4.917-2.5,6.299l0.2,0.397c-0.337,1.715-0.775,1.215-1,3.275
		c0,0.009,0.35,0.378,0,0.827c0.19,0.075,0.5,0.198,0.5,0.198c-0.988,1.362-0.559,2.104,0.006,2.54
		c0.451,0.35,0.982,0.424,0.994,1.06l3.1,0.6c0,0,0.375,0.404,0.7,0.804c2.237-0.492,2.237-0.492,3.3-1.104
		c0.317-0.037,4.97-0.619,6.6-0.296c0.4-0.021,0.797-0.069,0.95,0.05c0.231,0.092,0.378,0.131,0.5,0
		C40.401,46.698,42.042,46.558,43.029,46.476z"/>
	<path id="_x31__2_" vector-effect="non-scaling-stroke" fill="#FFFFFF" d="M51.229,30.573l-0.6,0.102
		c0.779-4.314,1.559-5.858,1.6-9.5c0,0,0.75-1.733,0.9-2c0.684-3.15,0.932-3.647,2.7-7.5l2.5-0.301
		c0.932,0.089,2.526,2.442,2.6,2.553c1.425,1.911,2.394,4.691,2.9,6.249l0.3-0.102c0.038,2.936,1.35,4.241,1.6,4.799
		c0.13,0.412,0.234,1.306,0.3,1.802c0.544,0.819,0.2,1.35,0.7,1.4c0.313,0.747,0.938,4.169,1.9,6.103
		c0.6-1.526,1.272-1.526,1.984-2.412c0.212-0.323,0.322-0.703,0.316-1.089c0,0,0.496-1.584,0.7-1.803
		c0.177-0.178,0.459-0.363,0.688-0.687c0.004-0.005,0.008-0.009,0.012-0.013c0,0,4.791-9.182,6.5-13.101
		c-0.225-0.423,0.259-1.736,0.85-2.147c2.831-1.901,2.394-0.338,3.3-1.303c0.063-0.146-0.162-0.133,0.45-0.35s0.165-0.514,0.5-0.699
		c0.862,0.201,2.4-0.099,2.4-0.099c0.216,0.134,1.5,0.85,2,1.1c0.538,0.271,1.681,0.95,0.9,1.601c0.156,0.255,0.3,0.699,0.3,0.699
		s-0.264,0.488-0.4,1.1c0.194,0.862,0.963,3.874,1.4,5.5c-0.425,2.05-0.612,6.331-0.2,8.8c-1.194,2.188-0.1,1.031-0.7,3.7
		c0.225,0.144,0.727-0.194,0.9,0c0,0.456,0,0.7-0.6,1.099c0.036,0.143,0.1,0.4,0.1,0.4l0.5-0.2c-0.362,0.845-0.612,0.657,0.2,1.5
		l-0.6,1.7c0,0.064-0.087,0.847-0.5,1.5c0,0,0.631-0.324,0.8-0.3c0.3,0.851-0.419,1.007-0.1,1.5c0.461-0.008,0.842,0.102,1,0.5
		c-0.108,0.341-0.866,2.458-0.9,3.599l1.4,2.3c-0.162,0.544-0.9,1.301-0.9,1.301l0.7-0.101c0.2,0.5,0.049,0.841-0.2,1.399
		c0.311,0.069,1.05,0.041,0.8,0.597c-0.185,0.22-0.531,0.351-0.8,0.5c0.508,6.65,0.55,5.9,0,6.698
		c-2.534,1.243-2.45,1.577-3.4,1.804c-3.258-0.019-3.462-0.463-4.112,0.103c-0.188-0.579-1.225-0.803-1.488-1
		c-1.7-1.538-0.867-2.829-2.1-5.803c-0.017-0.568,1-2,1-2c-0.767-3.821-0.725-11.791-0.3-13.497c-0.194-0.048-0.4-0.1-0.4-0.1
		c0-0.936,0.475-6.407-0.2-9.1l-2.9,5.1c-0.644,1.909-1.099,2.021-1.526,2.623c-0.307,0.419-1.641,3.191-1.974,3.827
		c-0.333,0.633-2.6,3.95-2.6,3.95s-2.903,1.604-3.3,2.103c-0.556,0.112-2.568-1.011-2.568-1.011
		c-2.082-1.439-1.082-1.48-2.732-5.495l-0.4-0.4c-0.168-1.597-1.21-4.769-1.467-5.429c-0.545-0.996-1.866-7.438-1.933-7.571
		l-0.3,3.4c-0.625,0.847-0.366,1.479-0.3,2.8c-0.159,0.38-0.325,1.505-1,2.1c-0.023,0.485-0.042,0.748-0.168,1.302
		c-0.126,0.553,0.125,0.803-0.118,1.93c-0.114,1.069-0.231,1.232-0.614,1.768c-0.042,0.543-0.565,4.369-0.8,5.301
		c-0.667-0.063-0.958,0.396-0.9,0.901c-0.093,0.187-0.2,0.4-0.2,0.4l0.9-0.5l0.2,0.3c0,0-0.042,1.378,0.4,1.596
		c-0.079,0.236-0.5,1.5-0.5,1.5s0.642,1.324-0.9,1.303c-0.234,1.209-0.605,1.438-1.2,2.102c0.169,0.212,0.4,0.5,0.4,0.5h-1.4
		c0,0-0.133-1.122-0.6-1.701c-0.085,0.331-1.242,0.287-0.7,1.701c0,0-0.375,0.211-1.098-0.299c-1.118-0.511-2.079-0.376-2.902-0.801
		c-0.484-0.541-0.25-1.899-0.7-2.604c0,0,0.466-1.3,0.496-1.622c0.004-0.553-0.077-0.881,0.058-1.108
		c0.011-0.023,0.446-0.865,0.446-0.865v-0.4l0.5-0.801c0.055-1.367,0.786-5.04,1.2-6.5l-0.2-1.2c0.034-0.444,0.8-1.1,0.8-1.1
		s-0.377-0.542-0.3-0.9C50.304,32.511,51.146,31.566,51.229,30.573z M52.529,26.374c-0.378,0.541-0.8,2.354-0.9,3.2l0.7-0.2
		C52.33,29.374,52.492,26.947,52.529,26.374z M55.93,39.074l-0.4,0.3c-0.003,0.369-0.331,1.279-0.3,1.802
		c0.362-0.219,0.503-0.439,0.597-0.763C55.979,39.883,55.93,39.074,55.93,39.074z M90.923,30.776
		c0.057,0.419-0.162,0.466-0.344,0.499c-0.054,0-0.24,0.046-0.25-0.501c0-0.121,0.047-0.348,0.2-0.4
		C90.683,30.322,90.867,30.357,90.923,30.776z M55.83,37.874c0,0-0.388,0.437-0.4,0.802c0.112-0.08,0.7-0.5,0.7-0.5L55.83,37.874z
		 M90.83,32.074c0.088,0.325-0.169,0.399-0.185,0.399s-0.01,0-0.015,0c-0.067,0-0.1-0.134-0.1-0.4c0-0.021,0.074-0.199,0.1-0.199
		C90.629,31.874,90.667,31.961,90.83,32.074z"/>
	<path id="_x32__1_" vector-effect="non-scaling-stroke" fill="#FFFFFF" d="M114.43,58.075c-0.019,0.001-0.037,0.003-0.055,0.006
		c-0.989,0.289-1.814,0.703-2.495,1.246s-0.383,1.018-0.25,1.148l-0.5,0.5c-0.045-0.022-0.39-0.237-0.399-0.291
		c-0.001-0.003-0.001-0.006-0.001-0.01c0-0.016,0-0.021,0.002-0.032c0.002-0.022,0.098-0.103,0.098-0.173c0,0-0.35,0.119-0.697,0.3
		c-0.434,0.038-1.265-0.9-1.303-0.948c-0.098-0.121-0.35-0.545-1.4-0.646c0.117,0.175,0.469,0.526,0.5,0.552
		c0.071,0.062,0.487,0.581,0.3,1.25c-0.344,0.175-1.263-0.956-1.3-1.005c-0.221-0.004-0.606,0.18-1.1,1
		c-0.444-0.727-2.267-2.065-2.6-2.399c0,0,0.15-0.267,0.2-0.5c-0.388-0.546-1.013-0.265-1.518-1.255
		c-0.276-0.635,0.111-2.018,0.498-3.186c0.007-0.021-0.351-0.865-0.078-1.032s0.818-0.359,0.898-0.386
		c1.125-0.5,0.977-1.151,1-1.551c0-0.615,0.005-1.229,0.016-1.851c0.031-1.695,0.109-2.946,0.234-3.746
		c0.188-1.947,1.18-3.63,1.202-3.722c0.082-0.314,0.148-1.736,0.148-1.876c-0.053,0.053-0.569,0.745-0.9,0.2l0.2-6.103
		c0.121-0.421,0.6-3.231,0.6-3.3l1.2-2.7c0,0,0.05-1.728,0.413-3.186c0.231-0.885,0.981-2.135,1.248-3.619
		c0.013-0.063,0.039-1.189,0.039-1.189l-3.9,0.496l-2.5,0.601h-0.7c-0.222-0.018-0.315,0.294-0.7,0.301v-0.101
		c-0.296,0-0.482-0.034-0.56-0.107c-0.103-0.47-0.652-0.232-0.712-0.216s-0.928,0.021-0.928,0.021c-0.062,0-0.624,0.276-0.677,0.287
		c-0.041,0.01-0.619,0.011-0.817,0.003c-0.859-0.003-1.453-0.144-1.908-0.491c0.002-0.215,0.002-0.498,0.002-0.498
		c-0.672-0.014-1.094-0.342-1.352-0.763c-0.106-0.185-0.632-1.579-0.648-2.836c0,0,0.722-0.69,0.9-0.701s1.364,0.13,1.963,0.094
		s1.075,0.083,1.737-0.693c0,0,0.899,0.014,1.72-0.038c1.243-0.108,1.062-0.182,2.277-0.536s3.42,0.119,3.779,0.164
		s0.524-0.091,0.524-0.091c0.055,0.055,0.061,0.088,0.456,0.089s0.863-0.468,1.141-0.489c0.001,0,0.003,0,0.004,0l0.1,0.103
		c0.447,0.011,1.322-0.692,1.865-0.963c0.391-0.208,0.845-0.37,1.135-0.338s1.994,0.25,3.2-0.194c0,0,2.083-0.052,2.85-0.15
		s2.178-0.203,2.85-0.149c0.217-0.019,1.094-0.257,1.749-0.2c0.051-0.007,1.22-0.042,1.551,0.093c4.591-0.119,5.606,0.178,7.2,1.003
		c-0.128,0.126-0.25,0.362-0.195,0.597c0.016,0.177,0.317,1.911,0.295,2.002c0.197-0.159,0.197-0.159,0.3-0.001
		c-1.212,0.968-2.444,1.323-3.6,1.553s-7.5,1.514-10.1,2.05l1.6,0.896c-0.8,0.655-1.112,2.249-1.1,2.899l0.9-0.3l-1.1,2.396v4
		c-0.467,0.2-0.7,0.636-0.7,1.303l0.5-0.301c0,0,0.45-0.279,0.4,0.5c0.05,0.502-0.093,0.699-0.2,1.603l-0.9,0.7v1.6
		c0.369,0.036,0.401-0.351,0.4-0.4c0-0.032,0,0.004-0.2-0.598s0.575-0.841,0.9-0.403c0,0,0.206,1.938-0.2,2.201l-0.4,0.103
		c0,0,0.042,0.384-0.1,0.697c-0.531-0.47-0.656,0.124-0.65,0.35c-0.015,0.17-0.506,3.555-0.15,4.05
		c0.175,0.005,0.213-0.936,0.4-1.097c-0.2-0.2-0.208-0.536-0.2-0.602c0.094-0.547,0.224-0.679,0.485-0.693
		c0.038-0.005,0.28,0.046,0.317,0.121c0.329,1.057-0.327,0.995-0.202,1.872c0.219,1.029,0.083,0.822-0.187,1.477
		c0.06,0.4,0.301,1.633,0.143,2.011s-1.156,2.004-1.156,2.004v3.899c-0.362,0.764-0.362,0.982-0.202,2.131
		C115.329,51.925,114.43,58.075,114.43,58.075z M114.529,37.475v4.6c0.4-1.866,0.6-3.7,0.6-5.5v-1L114.529,37.475z M114.83,33.874
		l-0.2,0.7l0.7,0.103c0-0.733,0.2-4.167,0.2-4.9l-0.2-1c-0.241,0.093-0.319,0.812-0.398,1.327c-0.033,0.221-0.101,0.715-0.102,0.72
		c-0.066,0.5-0.2,2.216-0.2,2.349L114.83,33.874z M105.83,43.476c-0.194,0.223-0.034,0.434,0.1,0.505
		c0.134,0.063,0.267,0.166,0.4,0.3c0,0-0.047-0.782-0.05-0.8c-0.007-0.046-0.05-0.283-0.35-0.305c-0.333,0-0.633,0.198-0.9,0.603
		C105.355,43.575,105.57,43.44,105.83,43.476z M105.83,42.374c-0.037-0.001-0.074,0.012-0.105,0.028
		c-0.048,0.032-0.078,0.092-0.089,0.179c-0.004,0.03-0.006,0.063-0.006,0.094c0,0.033,0.002,0.067,0.008,0.104
		c0.02,0.123,0.08,0.188,0.178,0.194c0.004,0,0.009,0,0.014,0c0.133,0,0.2-0.066,0.2-0.2S105.962,42.508,105.83,42.374z"/>
	<path id="_x34__1_" vector-effect="non-scaling-stroke" fill="#FFFFFF" d="M147.63,49.476l0.799-0.5l2.701-0.2
		c0.055,0.056,0.277,0.165,0.548,0.067s0.287-0.237,0.485-0.426c0.348-0.313,0.363,0.109,2.563-0.541
		c0.711-0.219,1.315-0.506,1.696-1c0.47-1.531,0.804-3.063,1-4.602c0.072-0.546,0.322-2.983,0.309-4l-0.602-1.2
		c0-0.265-0.158-0.478-0.479-0.638c-0.088-0.044-0.843-0.286-1.226-0.362l-1.104-0.397c-0.6,0-1.115-0.103-1.55-0.303
		c-0.282-0.129-2.05-0.876-2.755-1.059s-1.74-0.446-3.297-0.444c0,0-0.826,0.025-1.057-0.02s-0.244-0.33-0.244-0.378
		c-0.502-0.604-1.405-0.924-1.75-1c-0.463-0.104-1.002-0.261-1.648-1.1c-0.682-0.458-1.713-4.458-1.801-5.6
		c0.334,0,0.5-0.233,0.5-0.7c0.041-0.376-0.156-0.565-0.073-0.932s0.671-0.665,0.671-0.665c0.678-0.826-0.197-0.811,0.5-1.3v0.897
		l0.2-0.1l2.3-7.2l3.102-3.3l1.809-1.1l1.898,0.7c0.359,0,0.772-0.061,1.234-0.181c0.141-0.036,0.273-0.076,0.412-0.119
		c1.629-0.732,4.613-0.015,6.824,0.728s6.18,2.586,7.126,3.369c-0.087,0.483-0.188,0.702-0.304,0.702
		c-0.268-0.078-0.17,0.533-0.107,0.632c0.199,0.352,0.199,0.633-0.217,1.027c-0.057,0.05-0.553,0.575-1.067,0.544l-5.8-0.5
		c0,0-3.396-0.1-3.404-0.1c-1.484-0.009-3.406,0.756-4.75,2.947c-0.969,1.512-1.734,3.872-1.75,6.45
		c0.002,0.089,0.068,0.359,0.37,0.578c0.849,0.578,2.321,0.834,2.726,0.823c0.213,0.009,0.427,0.116,0.681,0.304
		s0.591,0.49,0.806,0.619c0.418,0.238,2.115-0.022,2.115-0.022l1.7,0.603c0.493,0.235,1.579,0.016,1.8,0.1
		c3.225,1.151,4.568,1.979,5.75,3.25c1.693,1.792,2.195,4.336,2.292,4.921c0.104,0.586,0.651,4.606-0.247,6.83
		c-0.195,0.417-0.385,0.529-0.627,0.86c-0.063,0.079-0.584,0.994-0.873,1.04l-0.396,1.1l-0.5,0.4l-3.898,5.098
		c-0.734,0.111-1.73,0.382-2.159,0.541s-1.476,0.612-2.641,0.558c-0.036,0-0.487-0.1-0.8-0.201c-0.273,0.066-1.168,0.189-1.5,0.199
		c-2.645,0.135-7.375-0.429-8.615-0.567c-0.51-0.06-9.186-1.126-10.532-1.529c-0.138-0.081-0.013-0.315,0.206-0.362
		c0.139-0.098,0.139-0.098,0.241-0.322s-0.192-0.233-0.192-0.233c-0.105,0-0.238-0.12-0.3-0.298
		c0.735-0.068,1.017-0.193,1.098-0.378c0.001-0.007,0.001-0.015,0.001-0.021l-0.3-0.699c0,0,0.513-0.676,0.496-0.92
		s-0.215-0.272-0.223-0.271c-0.115,0.022-0.174-0.214-0.174-0.71c1.416-0.508,4.526-0.255,5.585-0.156
		C143.042,48.808,144.511,49.308,147.63,49.476z M142.63,19.175c-0.229,0.084-0.519,0.863-0.601,1.147s-0.351,0.916-0.286,1.161
		s0.246,0.191,0.286,0.191C142.032,21.67,142.615,19.611,142.63,19.175z M143.729,16.674l-0.9,1.5c0,0-0.221-0.019-0.199-0.303
		s0.443-1.159,0.705-1.297C143.417,16.729,143.729,16.674,143.729,16.674z"/>
	<path id="_x35__1_" vector-effect="non-scaling-stroke" fill="#FFFFFF" d="M190.929,35.372c-0.283,0.046-0.851,0.312-0.993,0.368
		s-0.365,0.129-0.513,0.129l-1.102,0.603l-1-0.2l-1.5,0.4l-1.1-0.2c-0.508,0.085-1.367,0.914-1.9,0.897l-0.898,0.103l-1.602,4.397
		c-0.17,0.513-0.701,2.111-0.795,2.833c-0.002,0.023-0.003,1.269-0.003,1.269l0.397,0.5c0.793-0.115,1.309,0.307,2.103,0.3h2.397
		c0.5,0.041,4.397,0.296,4.897,0.3s2.408,0.199,2.485,0.202c0.005,0,0.898-0.089,1.089-0.097c0.092-0.004,1.459-0.108,1.522-0.108
		l4.605,0.808c0.584-0.02,2.771,0.418,3.021,0.561c0.146,0.044,0.813,0.232,0.974,0.421c0.003,0.005,0.006,0.013,0.006,0.021
		c0.003,0.565-0.241,1.104-0.671,1.479c-0.293,0.28-1.434,0.905-1.932,1.425c0,0-2.424,0.543-3.676,0.534
		c-0.125,0.007-4.131,0.067-4.33,0.067s-3.892,0-3.892,0c-0.397-0.133-0.815-0.196-1.25-0.196c0,0-1.668,0.004-1.831,0.012
		c-0.669,0.026-5.539,0.532-8.119,0.488l-1.8,0.396c-1.62-0.211-2.354-0.539-2.7-0.9l-2.5-2.899l-0.398-1v-1.7l0.804-1.699
		c0-0.063,0.063-0.362,0.196-0.896l0.301-0.604c0.1-0.544,0.9-2.001,0.9-2.001l0.199,0.301c0.266-0.516,0.205-0.9,0.205-0.9
		l-0.396,0.2l-0.2-0.2c0-0.346,0.063-0.729,0.188-1.151c0.021-0.064,0.391-1.433,0.416-2.049c0.475,0.413,1.502-0.505,1.596-0.597
		l-0.604-0.103c-0.002-1.731,0.951-1.528,1-3.397c-0.109-0.001-0.439-0.021-0.898,0.25c-1.166,1.119-0.432,1.119-1.596,1.85
		c-0.133-0.747,0.393-2.152,0.467-2.403c0.229-0.828,1.057-3.031,1.502-3.788c0.242-0.493,1.008-1.821,1.531-2.206l0.198,0.3
		c0.198-0.269,0.386-0.55,0.552-0.853c0.336-0.64,0.25-1.259,0.25-1.259l-0.398,0.9l-0.398-0.2l0.398-1.2
		c0,0,0.242,0.235,0.267,0.245c0.091,0.037,0.229,0.058,0.429,0.058c0.289-0.293,0.697-2.597,0.698-2.603
		c-0.284,0.747-0.933,1.634-1,1.7h-0.198c0.008-0.344,0.123-0.609,0.244-0.939c0.021-0.054,0.362-1.058,0.362-1.261l0.397-2.1v-1
		l-3.102-2.5c-0.301-0.138-0.4-1.292-0.4-1.3c0-0.534,0.301-0.803,0.898-0.803h5.8c0.401,0.012,1.942-0.537,2.5-0.598
		c0.245,0.001,2.399,0.1,2.399,0.1c2.127-0.162,4.111,0.01,6.296-0.4h10.103c0.619-0.09,1.971,0.938,2.098,1.044
		c0.406,0.324,0.729,0.724,0.705,0.956c0.02,0.316-0.178,0.576-0.35,0.647c-0.334,0.076-0.4,0.531-0.25,0.952
		c0.028,0.121-0.287,0.229-0.859,0.321c-0.063,0.01-1.076,0.138-1.443,0.163c-0.162,0.01-2.516,0.015-3.038,0.065
		c-0.438,0.057-0.821,0.155-1.155,0.304c-0.822,0.302-2.305,1.267-2.705,1.5c-0.397,0.231-0.8,0.35-1.199,0.35
		c0,0.229-0.135,0.408-0.403,0.539c-0.047,0.022-2.446,0.744-2.946,0.911c-0.38,0.127-0.689,0.282-0.937,0.466
		c-0.663,0.427-3.741,4.599-4.613,6.184c0.044,0.383,0.19,0.341,0.399,0.403c-0.051,0.164-0.293,0.965-0.776,1.253
		c-0.407,0.165-0.626,0.946-0.628,1.65c1.602,0,3.133-0.052,4.602-0.15c2.947-0.241,7.403-0.149,7.403-0.149
		c0.509,0.069,1.588,0.302,1.601,0.302l1.199,0.5v0.392l0.801-0.396l-0.199,1l-0.398,1.396c-0.133,0-0.27,0.066-0.398,0.2
		c-0.047,0.046-0.639,0.654-1.047,0.836c-0.373,0.303-1.315,0.362-1.679,0.366c-0.024,0-0.851,0.03-1.905-0.157
		c-0.291-0.028-0.742-0.094-1.414,0.057C191.667,35.525,191.222,35.53,190.929,35.372z M173.929,38.074h-1
		c-0.129,0.127-0.199,0.301-0.199,0.481c0,0.006,0,0.013,0,0.019v0.4c0.268-0.27,0.535-0.445,0.802-0.534
		c0.128-0.043,0.263-0.065,0.397-0.066V38.074z"/>
	<path id="_x36__1_" vector-effect="non-scaling-stroke" fill="#FFFFFF" d="M205.933,41.784c-0.186-0.062-1.934-0.702-2.396-0.902
		c-0.979-0.403-1.541-0.95-1.66-1.222c-0.115-0.588,0.149-0.679,0.211-0.677c0.252-0.005,0.684-0.175,0.744-0.2
		c-0.533-0.213-1.008-0.68-1-1.597c0.289,0.042,1.586-0.146,2.207-0.103c0.229,0,1.407-0.095,1.481-0.097c0.008,0,0.013,0,0.019,0
		l3.293-0.05c0.467-0.034,1.289-0.224,1.479-0.355c0.217-0.126,0.364-0.43,0.321-0.696c0.176-0.391,1-2.698,1-2.698l1-1.4l0.199-1.8
		l0.5,0.1l0.198-1.8l2.103-2.6l-0.897-0.7l1-2c0.261-0.212,1.447-3.403,1.447-3.403s1.454-3.856,1.958-5.598l0.5-1.102
		c0,0-0.098-0.046-0.092-0.231c0.15-0.706,0.824-1.75,0.842-1.791c0.059-0.146,0.652-2.399,1.001-3.029
		c0.125-0.273,0.417-0.667,0.647-0.752c0,0,0.33,0.198,0.5,0.3c0.301-0.028,0.834-0.166,1.102-0.3
		c1.527,1.397,2.699,1.6,3.248,1.803c0.951,0.282,1.686,0.735,1.953,1.703c0.154,0.844,0.779,2.047,0.693,2.598
		c1.539,1.152,4.445,5.043,3.898,7.7c0.069,0.256,1.803,6.7,1.803,6.7v1.498c0.396,0,0.602,0.103,0.602,0.3
		c-0.129,0.128-0.198,0.303-0.196,0.481c0,0.006-0.201,0.419-0.201,0.419l0.201,0.2v2.6h0.196c0.018,0.286-0.186,0.567-0.203,0.803
		l0.404,0.398c-0.262,1.413,0.098,3.069,0.297,3.5c-0.309,0.257-0.309,0.71-0.293,1.104c0,0.387,0.375,0.106,0.088,0.981l0.5-0.197
		l-0.301,0.401l0.301,0.4l-0.301,0.899c-0.084,0.59,0.76,0.746,0.7,1.5c-0.134,0-0.186,0.046-0.2,0.199
		c-0.037,0.485,0.159,0.494,0.168,0.524c0.021,0.037,0.029,0.087,0.031,0.146c0,0.015-0.199,0.429-0.199,0.429
		c0,0.127,0.047,1.193,0.103,1.299c0.021,0.033,0.577,0.97,0.598,1.008v2.898c0.118,0.116,0.224,0.195,0.315,0.235
		c0.182,0.009,0.307,0.274,0.085,0.463l0.2,0.302c-0.002,0.316,0.271,1.307,0.304,1.602c0.002,0.113,0.015,0.736-0.447,0.953
		c-0.229,0.123-0.46,0.408-0.452,0.85c-0.242-0.035-0.086-0.629-0.604-0.602c0,0.039,0.038,0.465-0.05,0.547
		s-0.963,0.176-1.096-0.01c-0.211-0.111-0.273-0.705-0.555-0.744c0,0-1.784-0.002-1.826-0.004c-0.455-0.004-0.127-0.301-0.477-0.291
		c-0.322-0.088-0.579,0.223-0.602,0.244c-0.102,0.125-0.257,0.201-0.471,0.231c-0.076,0.013-0.375,0.124-1.083-0.312
		c-0.481-0.303-0.784-0.756-0.896-1.364c-0.037-0.199-0.178-0.778,0.088-0.946c0.004-0.003,0.16-0.195,0.16-0.26
		c0-0.758-0.098-1.682-0.301-2.25c-0.113-0.374-0.328-1.229-0.3-2.148c0.196,0,0.333,0.053,0.396,0.148
		c0.024,0.037,0.213,0.258,0.301,0.345c-0.162,0.083-0.381,0.505-0.043,0.833c0.101,0.094,0.51,0.256,0.543,0.266
		c0.057-0.438-0.318,0,0-0.576c0-0.012-0.1-0.479-0.1-0.782c0.063-0.548-0.302-2.146-0.302-2.146l-0.198-0.302l-0.098,0.903
		l-0.2-0.5l-0.399,1.3c-0.021-0.616-0.162-1.679-0.099-3.599c-0.079-0.237-0.635-0.346-0.651-0.349
		c-0.709-0.279-3.352-0.25-3.352-0.25c-0.217,0-0.764,0.08-1.023,0.156c-0.162,0.029-1.115,0.096-1.871-0.106
		c-0.461-0.104-0.793-0.149-0.992-0.15c-0.004,0-0.006,0-0.008,0c0,0-1.232,0.019-1.346,0.052c-0.218,0.069-0.382,0.214-0.492,0.431
		c-0.004,0.007-0.297,0.698-0.36,1.171c-0.155,0.669-0.046,1.528-0.19,2.018c-0.006,0.015-0.412,0.829-0.412,0.829l0.603,0.199
		l-0.203,0.298h-1c0.032,0.575-0.286,1.271-0.5,1.7c-0.104,0.215-0.839,1.574-1.099,1.904c-0.025,0.148-0.26,0.658,0.203,1.195
		c-1.01,1.072-1.449,2.794-1.5,2.999v0.899c-0.15,0.611-0.832,1.998-1,2.348c-0.123,0.258-0.619,1.201-0.6,2.148h0.604
		c-0.232,0.365-0.501,0.313-0.642,0.328c-0.088,0.043-0.13,0.242-0.161,0.371c0,0,0.273-0.084,0.25,0.1
		c0.18,0.66-0.145,1.1-0.301,1.252c0,0-1.02,0.971-1.393,1.543c-0.002,0.003-0.004,0.006-0.004,0.008
		c-0.295,0.357-0.389,1.029-0.354,1.398l0.301,0.199c0.023,0.275-0.533,1.1-0.596,1.201c-0.324,0.482-0.771,1.328-0.801,1.396
		c0,0.091-0.018,0.303-0.598,0.4c0,0.035,0.016,0.29,0.188,0.299s0.011,0,0.018,0c0.104,0,0.359,0.01,0.402,0.1
		c-0.086,0.176-0.176,0.318-0.262,0.438c-0.155,0.181-0.344,0.285-0.34,0.766l0.602-0.199c0,0.058,0.051,0.313-0.148,0.5
		c-0.16,0.063-0.15,0.5-0.15,0.5l-1.107,2.703h0.301l-0.399,3c-0.197,0.271-0.299,0.48-0.299,0.648c0,0.055-0.052,0.445-0.201,0.745
		l0.101,0.103c0,0.135-0.148,0.233-0.449,0.301c-0.125,0.029-0.658,0.281-0.944,0.604c-0.229,0.006-0.431-0.275-0.45-0.301
		c-0.166-0.199-0.25-0.367-0.25-0.5c0-0.058,0.088-0.188,0.098-0.199c-0.334-0.199-0.5-0.334-0.5-0.398
		c0-0.063-0.135-0.102-0.397-0.102l-0.304,0.396c-0.014,0.041-0.196,0.559-0.198,0.503c0-0.001,0-0.002,0-0.003l-2.2-0.301
		l1.898-0.601c-0.105-0.054-1.039-0.147-1.151-0.149c-0.519-0.024-0.892-0.043-1.117-0.049c-0.045,0-0.187,0.051-0.209,0.08
		c-0.183,0.16-0.03,0.418-0.435,0.344V75.98c-0.02,0.021-0.109,0.107-0.32,0.089s-0.787-0.309-1.48-0.295v-0.5
		c-0.33,0-0.76,0.064-1.102,0.295c-0.439-0.34-0.945-1.452-0.994-1.552c-0.166-0.328-0.301-0.544-0.404-0.648
		c0.47-0.267,0.72-0.6,0.75-1c0.015-0.155,0.052-1.298,0.052-1.401h0.303l0.5,1c0.12-1.129,0.843-3.508,0.919-3.867
		c0.248-0.715,0.174-2.633,0.174-2.633l0.303-1.198l0.6-1.2c0.188-0.418,0.307-0.815,0.4-1.102l0.302-0.398h1.101l1.604-0.5v0.5
		l-0.604,1.104v1.102l0.7,0.602c0.044-0.584,0.524-1.123,0.545-1.146c0.082-0.098,0.53-0.625,0.545-1.051v-1.604
		c0.017-0.735-1.196-0.6-1.196-0.6l-0.6,0.6l-1.598,0.001l0,0l-0.299-2c0.6-1.666,1.932-5.097,2.023-5.326
		c0.365-0.842,0.655-1.32,0.87-1.438c0.029-0.021,0.383-0.108,0.404-0.132c-0.134,0-0.269-0.065-0.399-0.198
		c-0.002-0.407,0.404-0.407,0.463-0.722c0.021-0.061,0.037-0.474,0.037-0.474l-0.3,0.2c-0.062-0.35,0.187-0.502,0.25-0.5
		c0.166,0,0.25-0.104,0.25-0.3h-0.2c-0.049-0.378,0.217-0.687,0.352-0.804c0.209-0.182,0.354-0.438,0.43-0.779
		c0.01-0.039,0.123-0.721,0.123-0.721s1.469-5.267,1.5-5.397c0.016-0.225-0.266-0.053-0.422-0.209L205.933,41.784z M221.63,35.674
		l0.602,0.197h2.55c2.928-0.034,3.72-0.825,3.75-1.397h-0.397v-1.4c-0.216-0.09-0.104-0.701-0.104-0.701h-0.2
		c-0.036-0.223,0.234-0.348,0.203-0.799c-0.094-0.007-0.5-0.1-0.5-0.1c0.092,0.001,0.436-0.132,0.5-0.2c0,0-0.113-0.455-0.197-0.8
		c-0.146-0.491,0.271-0.449,0.203-0.761c0-0.016,0.067-0.667-0.354-1.239c-0.073-0.129-0.609-0.797-0.146-1.8
		c-0.129-0.316-0.954-2.336-1.104-2.7c0.108-0.345-0.398-1.247-0.398-1.3c-0.279,0.805-2.348,7.247-2.963,8.721
		c-0.412,1.116-0.824,2.144-1.238,3.081L221.63,35.674z M203.329,65.976l-0.5,0.6c0.005,0.514-0.397,1.604-0.397,1.604v2.802
		l0.601-0.502c-0.073-0.39,0.219-1.098,0.295-1.546c0.004-0.053,0.006-0.104,0.006-0.149v-2.804h-0.004V65.976z M201.429,68.775v-2
		l-0.399,1c-0.134,0.333-0.2,0.667-0.2,1v1.5L201.429,68.775z M203.029,75.976h1.45c0.232,0,0.365-0.056,0.35-0.2
		s-1.826-0.099-1.84-0.095C202.96,75.689,203.029,75.976,203.029,75.976z M230.851,51.322c0.055,0.302,0.215,0.453,0.479,0.453
		c0.047-0.495,0.104-0.608,0.086-1.011c-0.041-0.248-0.139-0.395-0.379-0.395C230.761,50.464,230.835,51.241,230.851,51.322z
		 M204.029,64.374c-0.284,0.027-0.399,0.329-0.399,0.605c0,0.063,0.047,0.469,0.401,0.5s0.5-0.241,0.5-0.5
		C204.532,64.904,204.558,64.417,204.029,64.374z M205.13,64.874c-0.189,0.053-0.461,0.199-0.399,0.605s0.155,0.484,0.397,0.5
		s0.539-0.188,0.5-0.5C205.636,65.011,205.374,64.862,205.13,64.874z M230.729,48.675v1.101c0,0,0.105,0,0.199,0
		C231.022,49.318,231.21,49.089,230.729,48.675z M200.818,71.306c-0.047-0.342-0.156-0.383-0.289-0.331s-0.194,0.269-0.198,0.442
		c-0.002,0.021-0.023,0.492,0.198,0.457S200.865,71.647,200.818,71.306z M208.429,75.275v0.3h0.201L208.429,75.275z M207.13,77.075
		l0.199,0.2v-0.2H207.13z"/>
	<path id="_x37__1_" vector-effect="non-scaling-stroke" fill="#FFFFFF" d="M247.231,54.37c-1.033-0.109-3.268-0.141-4.967-1.289
		c-1.254-0.789-1.766-1.74-1.836-2.806c0.035-0.327-0.027-0.421,0.603-0.5c0.032-0.144,0.2-0.899,0.2-0.899
		c-0.814-0.084-0.098-0.795-0.098-0.795l-0.198-0.801c0-0.014-0.034-0.223,0.306,0l0.801-1l0.199,0.102
		C242,46.568,242,46.568,241.94,47.685v0.396c0.081,0.362,0.414,0.217,0.398-0.095c0.002-0.035,0.004-0.803,0.004-0.803
		c0-0.037,0.307-1.601,0.307-1.705c0,0,0-3.147,0.003-3.169c0.011-0.198,0.056-0.688,0.132-1.465
		c0.006-0.059,0.622-5.551,0.725-6.515c0.012-0.113,0.144-1.49,0.147-1.631c0-0.006,0-0.013,0-0.019l0.603-1l-0.603-1.4
		c0-0.333,0.063-0.917,0.199-1.75c0.022-0.169,0.187-1.442,0.187-1.651l0.299-1.397l0.701-1l-0.602-0.4v-1.899l0.5-1.603l-0.299-0.1
		l1.1-7.603c0-0.019-0.1-0.3-0.1-0.3c0.005-0.926,0.505-2.551,0.605-3.203l1.801-0.1l1.801-0.6c0,0,1.24-0.023,1.428,0.032
		c0.273,0.074,0.666,0.264,1.17,0.565c1.064,0.552,2.7,2.203,2.7,2.203c0.063,0.122,0.519,1.17,0.582,1.194
		c0.007,0.002,0.013,0.004,0.021,0.006c0,0,0.184,0.477,0.058,0.613c-0.058,0.195-0.343,2.411-0.757,3.383
		c0.336,0.825-0.27,1.365-0.402,1.5c0,0,0,0.101-0.098,0.241c0.164,0.084,0.494,0.063,0.494,0.063c0.045,0.239-0.111,0.583-0.5,0.9
		c0.024,0.026,0.164,0.075,0.198,0.301s-0.465,0.62-0.622,1.179c-0.188,0.734,0.022,1.023,0.022,1.023
		c-0.054,0.305-0.288,0.149-0.298,0.268c-0.053,0.271,0.26,0.381,0.297,0.537c-0.014,0.062-0.029,0.122-0.051,0.182
		c-0.158,0.475-0.439,0.24-0.524,0.423c-0.123,0.576-0.384,0.958,0.474,1.09c0,0-0.654,0.368-0.693,0.44
		c0.258,0.053,0.227,0.178,0.396,0.16c0.002,0,0.004,0,0.007,0l0.399,1.1c-0.185,0.239-0.332,0.438-0.457,0.599
		c-0.134,0.178-0.493,0.897-0.043,1.4c0.081,2.622-1.106,3.435-0.099,3.997c-0.008,0.391-0.367,2.047-0.807,2.297h-0.199l-0.104,0.4
		l0.5-0.101c-0.133,0.134-0.471,0.414-0.5,0.45c-0.211,0.251-0.01,0.354,0.004,0.354h0.6l-0.602,2h0.5
		c0.209,0.771-0.15,0.943,0.2,1.396l-0.2,0.303c0.084,0.994-0.182,2.838-0.202,3l-0.2,0.196l0.5,0.5
		c-0.014,0.188-0.389,0.397-0.393,0.4l0.102-0.3c-0.08,0.054-0.775,0.488-0.796,0.502l1,0.101c-0.489,0.595-0.813,0.618-1.323,0.599
		c0,0.121-0.041,2.043,0.4,3.102c0.293,0.77,1.152,1.473,2.393,1.095c0.025,0.425,0.357,0.288,0.435,0.277
		c1.419-0.399,2.481-0.649,4.96-0.603c0.568-0.016,0.725-0.531,0.992-0.766c0.592-0.703,0.764,0.047,0.918,0.094
		c0.4-0.396,0.833-0.6,1.3-0.6c0.067,0.064,0.527,0.1,0.72,0.121c0.152,0.037,0.244,0.187,0.28,0.381l0.4-0.2
		c0.271-0.093,0.239-0.28,0.395-0.3c0.396,0.389,0.985,0.754,1.799,0.8l-0.194,0.5c0.019,0.021,0.318,0.251,0.452-0.045
		c0.026-0.087,0.491-0.212,0.585-0.099s1.214,0.553,1.33,0.617c0.242,0.131,0.904,0.527,0.528,1.03l0.104,0.802
		c-0.47,0.198-1.979,0.727-2.305,1.1c-0.314,0.033-0.512-0.213-0.693-0.303c-0.09,0.258-0.101,0.475-0.101,0.5
		c0,0-0.021,0.148,0.158,0.199c-0.226,0.043-1.636,0.237-1.708,0.252c-1.471,0.322-2.408,0.072-2.955,0.049
		c-0.672-0.07-2.204,0.724-2.25,0.75c-0.897,0.5-1.906,0.836-3.652,0.75c-0.201,0-2.301,0.023-3.545,0.498
		c-0.072,0.027-0.412,0.213-0.449,0.596l-0.198-0.4c-0.312,0.861-0.64,0.689-0.899,1.305c-0.127-0.129-0.365-0.459,0-1.5
		c-0.24,0.197-1.252,0.195-1.301,0.195c-0.299-0.795-0.643-0.607-0.804-0.9C248.725,53.468,247.542,54.245,247.231,54.37z
		 M268.632,49.275c0,0.065,0.129,0.204,0.197,0.3c0.119-0.002,0.172-0.098,0.2-0.3S268.651,49.251,268.632,49.275z"/>
</g>
</svg>
